# xmcd
#
# Track frame offsets:
#	150
#	14293
#	27670
#	42735
#	62673
#	77248
#	91555
#
# Disc length: 1412 seconds
#
# Revision: 0
# Processed by: cddbd v1.5.2PL0 Copyright (c) Steve Scherf et al.
# Submitted via: dBpowerAMP V4.0
#
DISCID=52058207
DTITLE=Various Artist - CDX Volume 24A
DYEAR=1900
DGENRE=
TTITLE0=Sammy Kershaw - Don't Go Near The Water
TTITLE1=Rich Grissom - I Don't Do Floors
TTITLE2=Mark Collie - It Don't Take A Lot
TTITLE3=Brooks and Dunn - Neon Moon
TTITLE4=Billy Burnette - Nothin' To Do (And All Night To Do It)
TTITLE5=Clinton Gregory - Play, Ruby, Play
TTITLE6=Lynyrd Skynyrd - Pure and Simple
EXTD=
EXTT0=
EXTT1=
EXTT2=
EXTT3=
EXTT4=
EXTT5=
EXTT6=
PLAYORDER=
